<?xml version="1.0" encoding="UTF-8" standalone="no"?>
<svg
   xmlns:dc="http://purl.org/dc/elements/1.1/"
   xmlns:cc="http://creativecommons.org/ns#"
   xmlns:rdf="http://www.w3.org/1999/02/22-rdf-syntax-ns#"
   xmlns:svg="http://www.w3.org/2000/svg"
   xmlns="http://www.w3.org/2000/svg"
   xmlns:sodipodi="http://sodipodi.sourceforge.net/DTD/sodipodi-0.dtd"
   xmlns:inkscape="http://www.inkscape.org/namespaces/inkscape"
   viewBox="0 0 512 512"
   style="height: 512px; width: 512px;"
   version="1.1"
   id="svg30"
   sodipodi:docname="demi-reve.svg"
   inkscape:version="1.0.1 (3bc2e813f5, 2020-09-07)">
  <metadata
     id="metadata34">
    <rdf:RDF>
      <cc:Work
         rdf:about="">
        <dc:format>image/svg+xml</dc:format>
        <dc:type
           rdf:resource="http://purl.org/dc/dcmitype/StillImage" />
      </cc:Work>
    </rdf:RDF>
  </metadata>
  <sodipodi:namedview
     pagecolor="#ffffff"
     bordercolor="#666666"
     borderopacity="1"
     objecttolerance="10"
     gridtolerance="10"
     guidetolerance="10"
     inkscape:pageopacity="0"
     inkscape:pageshadow="2"
     inkscape:window-width="2513"
     inkscape:window-height="1633"
     id="namedview32"
     showgrid="false"
     inkscape:zoom="2.2094112"
     inkscape:cx="256"
     inkscape:cy="256"
     inkscape:window-x="0"
     inkscape:window-y="0"
     inkscape:window-maximized="0"
     inkscape:current-layer="svg30"
     inkscape:document-rotation="0" />
  <defs
     id="defs24">
    <filter
       id="shadow-6"
       height="300%"
       width="300%"
       x="-100%"
       y="-100%">
      <feFlood
         flood-color="rgba(72, 186, 255, 1)"
         result="flood"
         id="feFlood2" />
      <feComposite
         in="flood"
         in2="SourceGraphic"
         operator="atop"
         result="composite"
         id="feComposite4" />
      <feGaussianBlur
         in="composite"
         stdDeviation="8"
         result="blur"
         id="feGaussianBlur6" />
      <feOffset
         dx="5"
         dy="15"
         result="offset"
         id="feOffset8" />
      <feComposite
         in="SourceGraphic"
         in2="offset"
         operator="over"
         id="feComposite10" />
    </filter>
    <filter
       id="shadow-7"
       height="300%"
       width="300%"
       x="-100%"
       y="-100%">
      <feFlood
         flood-color="rgba(72, 186, 255, 1)"
         result="flood"
         id="feFlood13" />
      <feComposite
         in="flood"
         in2="SourceGraphic"
         operator="atop"
         result="composite"
         id="feComposite15" />
      <feGaussianBlur
         in="composite"
         stdDeviation="8"
         result="blur"
         id="feGaussianBlur17" />
      <feOffset
         dx="5"
         dy="15"
         result="offset"
         id="feOffset19" />
      <feComposite
         in="SourceGraphic"
         in2="offset"
         operator="over"
         id="feComposite21" />
    </filter>
  </defs>
  <g
     class=""
     transform="translate(-2.1627108,-0.3)"
     id="g28"
     style="stroke:#000080;stroke-width:5;stroke-miterlimit:4;stroke-dasharray:none">
    <path
       d="m 342.5,17.9 c -3.1,11.63 -2.2,21.56 -23.8,25.11 20.3,-2.7 22.3,9.58 24.8,21.49 -2.8,1.94 -5.5,4.11 -8.1,6.49 -21.9,20.84 -33,41.11 -49,61.61 -6.3,1.2 5.3,-53.52 31.1,-79.87 C 225.1,40.92 207.6,268.4 236.4,275 184.7,293.4 163.8,176.7 177,117.7 c -37.1,3.9 -62,39.8 -67.9,60 2.8,27.1 6.1,55.1 38.7,80.9 -32.1,3.6 -42,-27.8 -55.31,-54 -78.59,104.9 105.91,106.8 136.01,94.5 -93,70.5 -149.62,52.3 -196.77,39 -40.48,85.1 61.46,56 107.57,35.7 -18.4,30.7 -72.25,37.6 -88.92,41 61.62,51.3 174.42,-67 200.02,-106.5 2.5,65.7 -74.3,134.4 -122.8,171.7 43.6,2.2 83.2,-17.9 102.4,-55.5 0,10.1 -4.1,22.6 -9.6,35.8 15,-2.1 39.6,-6.2 48.8,-24.2 25,-54.1 37.8,-93.1 15.3,-138.2 29.9,33.5 63.6,65.3 58.4,114.5 26.9,-15.6 48.8,-33.6 24.7,-60.1 14.1,1.4 23.6,7.7 32.8,13.7 13.9,-2.8 34.4,-19.9 33.7,-33 -31.6,-29.8 -83.4,-43.7 -133.8,-55.9 72.1,-19.8 136.9,-10.1 175.6,5.6 5,-11.7 9.4,-29.6 5.9,-41.9 -16.4,-9.7 -62.7,-7.8 -83.3,-5.6 17.7,-15.7 56.8,-21.1 81.3,-21.2 -2,-67.7 -162.6,27.8 -182.2,42.8 32.7,-59.1 123.2,-112.7 178.7,-121.1 -13.2,-31.1 -37.2,-34 -64.3,-22.4 2.4,-9.5 6.7,-17.49 23.4,-15.29 -21.6,-3.51 -20.7,-13.44 -23.8,-25.07 -2.4,13.55 -4.1,17.11 -19.4,26.67 14.3,-2.17 16.4,6.69 17.4,14.69 -53.5,24.4 -117.8,102.8 -135.1,132.5 -22.1,-24 51,-121.5 107.7,-187.46 -3.1,-9.48 -21.8,-6.31 -38.2,4.81 1.1,-8.63 0.7,-22.16 17.9,-19.54 -15.3,-9.6 -17,-13.16 -19.4,-26.71 z m -166.3,0.3 c 5.4,10.73 12.7,17.53 -1,34.56 13.8,-16.07 23.7,-7.13 33.9,0.22 -4.6,-7.19 -16.3,-17.67 -0.7,-27.86 -17.8,3.09 -21.4,1.57 -32.2,-6.92 z M 47.71,26.61 C 44.63,38.24 45.58,48.17 23.95,51.66 44.97,48.92 46.34,62.21 49.01,74.47 50.44,66.04 48.73,50.5 67.15,53.31 51.88,43.72 50.17,40.16 47.71,26.61 Z m 419.39,5.5 c 1.6,10.83 1.3,13.93 -7.8,25.07 13.1,-6.8 15.9,5.39 19.1,11.38 C 477.2,58.59 475,48.2 491.5,44.92 474.3,47.79 472.4,40.07 467.1,32.11 Z M 125.3,84.28 c -0.6,18.02 -12,17.32 -22.7,17.92 7,2.4 20.3,3 15.3,18.2 10.2,-11.6 13.3,-12.5 25.2,-12.6 -9.4,-4.3 -17.8,-4.9 -17.8,-23.52 z M 71.21,153.9 c -8.61,8.5 -12.85,17.5 -33.24,9.6 19.47,8.3 13.98,20.4 10.08,32.4 5.46,-6.6 11.9,-20.9 26.35,-9.1 -8.38,-16 -8.02,-19.9 -3.19,-32.9 z M 453.9,282.7 c -2.4,8.9 -1.7,16.5 -18.2,19.2 16,-2.1 17.1,8.1 19.2,17.5 1.1,-6.5 -0.2,-18.4 13.8,-16.3 -11.7,-7.3 -13,-10 -14.8,-20.4 z M 69.25,293.8 c -12.82,12.7 -16.72,13.5 -30.41,12.7 10.55,5.7 20.39,7.1 18.72,29 2.3,-21.1 15.46,-19.4 28.05,-19.1 -7.83,-3.3 -23.4,-5.3 -16.36,-22.6 z m 394.55,50.7 c 3.1,11.6 8.9,19.7 -8,33.6 16.8,-12.9 24.6,-2.2 33.2,7.1 -3.1,-8 -12.4,-20.6 4.9,-27.4 -18,-0.5 -21.3,-2.8 -30.1,-13.3 z m -139.2,72.1 c -2.7,12.3 -4.1,25.5 -25.1,22.8 21.6,3.5 20.7,13.4 23.8,25 2.4,-13.5 4.1,-17.1 19.4,-26.6 C 324.3,440.6 326,425 324.6,416.6 Z M 83.9,438.2 c -2.83,16 -4.84,20.2 -22.86,31.5 21.68,-3.3 19.67,15.1 21.33,25 3.19,-14.5 4.84,-30.1 29.63,-26.9 -25.5,-4.2 -24.43,-15.9 -28.1,-29.6 z m 366.2,11.4 c -7.3,9.6 -10.2,19.1 -31.5,14.2 20.4,5.4 16.8,18.1 14.6,30.6 4.5,-7.3 8.8,-22.4 24.8,-12.8 -10.6,-14.6 -10.8,-18.6 -7.9,-32 z"
       fill="#ffffff"
       fill-opacity="1"
       id="path26"
       style="stroke:#000080;stroke-width:5;stroke-miterlimit:4;stroke-dasharray:none" />
  </g>
</svg>
